<mxfile host="app.diagrams.net" agent="Mozilla/5.0 (Windows NT 10.0; Win64; x64) AppleWebKit/537.36 (KHTML, like Gecko) Chrome/129.0.0.0 Safari/537.36" version="24.7.17">
  <diagram name="Page-1" id="R4j3IjuWDjsUBQntjkcD">
    <mxGraphModel dx="1803" dy="984" grid="1" gridSize="10" guides="1" tooltips="1" connect="1" arrows="1" fold="1" page="1" pageScale="1" pageWidth="850" pageHeight="1100" math="0" shadow="0">
      <root>
        <mxCell id="0" />
        <mxCell id="1" parent="0" />
        <mxCell id="xJSVYITagOBkP6hm_T9q-1" value="" style="whiteSpace=wrap;html=1;aspect=fixed;" vertex="1" parent="1">
          <mxGeometry x="120" y="40" width="190" height="190" as="geometry" />
        </mxCell>
        <mxCell id="xJSVYITagOBkP6hm_T9q-2" value="Users" style="text;html=1;align=center;verticalAlign=middle;whiteSpace=wrap;rounded=0;" vertex="1" parent="1">
          <mxGeometry x="185" y="40" width="60" height="30" as="geometry" />
        </mxCell>
        <mxCell id="xJSVYITagOBkP6hm_T9q-18" style="edgeStyle=orthogonalEdgeStyle;rounded=0;orthogonalLoop=1;jettySize=auto;html=1;entryX=0;entryY=0.5;entryDx=0;entryDy=0;" edge="1" parent="1" source="xJSVYITagOBkP6hm_T9q-3" target="xJSVYITagOBkP6hm_T9q-17">
          <mxGeometry relative="1" as="geometry" />
        </mxCell>
        <mxCell id="xJSVYITagOBkP6hm_T9q-3" value="user_id&amp;nbsp; (Primary key/bigint/int)" style="text;html=1;align=center;verticalAlign=middle;whiteSpace=wrap;rounded=0;" vertex="1" parent="1">
          <mxGeometry x="126.5" y="70" width="177" height="30" as="geometry" />
        </mxCell>
        <mxCell id="xJSVYITagOBkP6hm_T9q-5" value="" style="whiteSpace=wrap;html=1;aspect=fixed;" vertex="1" parent="1">
          <mxGeometry x="425" y="40" width="220" height="220" as="geometry" />
        </mxCell>
        <mxCell id="xJSVYITagOBkP6hm_T9q-6" value="Cars" style="text;html=1;align=center;verticalAlign=middle;whiteSpace=wrap;rounded=0;" vertex="1" parent="1">
          <mxGeometry x="505" y="50" width="60" height="30" as="geometry" />
        </mxCell>
        <mxCell id="xJSVYITagOBkP6hm_T9q-7" value="car_id&amp;nbsp; (Primary key/bigint/int)" style="text;html=1;align=center;verticalAlign=middle;whiteSpace=wrap;rounded=0;" vertex="1" parent="1">
          <mxGeometry x="460" y="80" width="180" height="30" as="geometry" />
        </mxCell>
        <mxCell id="xJSVYITagOBkP6hm_T9q-9" value="car_name&amp;nbsp; (varchar 32)" style="text;html=1;align=center;verticalAlign=middle;whiteSpace=wrap;rounded=0;" vertex="1" parent="1">
          <mxGeometry x="460" y="110" width="145" height="30" as="geometry" />
        </mxCell>
        <mxCell id="xJSVYITagOBkP6hm_T9q-10" value="rental_rate_per_minute&amp;nbsp; (DECIMAL)" style="text;html=1;align=center;verticalAlign=middle;whiteSpace=wrap;rounded=0;" vertex="1" parent="1">
          <mxGeometry x="420" y="140" width="230" height="30" as="geometry" />
        </mxCell>
        <mxCell id="xJSVYITagOBkP6hm_T9q-12" value="rental_rent_per_km&amp;nbsp; (DECIMAL)" style="text;html=1;align=center;verticalAlign=middle;whiteSpace=wrap;rounded=0;" vertex="1" parent="1">
          <mxGeometry x="400" y="160" width="270" height="30" as="geometry" />
        </mxCell>
        <mxCell id="xJSVYITagOBkP6hm_T9q-13" value="is_avaliable(BOOLEAN)" style="text;html=1;align=center;verticalAlign=middle;whiteSpace=wrap;rounded=0;" vertex="1" parent="1">
          <mxGeometry x="505" y="180" width="60" height="30" as="geometry" />
        </mxCell>
        <mxCell id="xJSVYITagOBkP6hm_T9q-14" value="" style="whiteSpace=wrap;html=1;aspect=fixed;" vertex="1" parent="1">
          <mxGeometry x="270" y="290" width="190" height="190" as="geometry" />
        </mxCell>
        <mxCell id="xJSVYITagOBkP6hm_T9q-15" value="Rent" style="text;html=1;align=center;verticalAlign=middle;whiteSpace=wrap;rounded=0;" vertex="1" parent="1">
          <mxGeometry x="325" y="290" width="60" height="30" as="geometry" />
        </mxCell>
        <mxCell id="xJSVYITagOBkP6hm_T9q-17" value="user_id (Primary key/bigint/int)" style="text;html=1;align=center;verticalAlign=middle;whiteSpace=wrap;rounded=0;" vertex="1" parent="1">
          <mxGeometry x="280" y="320" width="170" height="30" as="geometry" />
        </mxCell>
        <mxCell id="xJSVYITagOBkP6hm_T9q-19" value="car_id (Primary key/bigint/int)" style="text;html=1;align=center;verticalAlign=middle;whiteSpace=wrap;rounded=0;" vertex="1" parent="1">
          <mxGeometry x="263.5" y="350" width="200" height="30" as="geometry" />
        </mxCell>
        <mxCell id="xJSVYITagOBkP6hm_T9q-20" style="edgeStyle=orthogonalEdgeStyle;rounded=0;orthogonalLoop=1;jettySize=auto;html=1;exitX=0;exitY=0.5;exitDx=0;exitDy=0;entryX=0.999;entryY=0.621;entryDx=0;entryDy=0;entryPerimeter=0;" edge="1" parent="1" source="xJSVYITagOBkP6hm_T9q-7" target="xJSVYITagOBkP6hm_T9q-19">
          <mxGeometry relative="1" as="geometry" />
        </mxCell>
        <mxCell id="xJSVYITagOBkP6hm_T9q-23" value="start_time (DATETIME)" style="text;html=1;align=center;verticalAlign=middle;whiteSpace=wrap;rounded=0;" vertex="1" parent="1">
          <mxGeometry x="280" y="380" width="160" height="30" as="geometry" />
        </mxCell>
        <mxCell id="xJSVYITagOBkP6hm_T9q-24" value="end_time (DATETIME)" style="text;html=1;align=center;verticalAlign=middle;whiteSpace=wrap;rounded=0;" vertex="1" parent="1">
          <mxGeometry x="282.5" y="400" width="155" height="30" as="geometry" />
        </mxCell>
        <mxCell id="xJSVYITagOBkP6hm_T9q-25" value="kilometrs_driven (DECIMAL)" style="text;html=1;align=center;verticalAlign=middle;whiteSpace=wrap;rounded=0;" vertex="1" parent="1">
          <mxGeometry x="280" y="420" width="160" height="30" as="geometry" />
        </mxCell>
        <mxCell id="xJSVYITagOBkP6hm_T9q-26" value="is_cancelled(BOOLEAN)" style="text;html=1;align=center;verticalAlign=middle;whiteSpace=wrap;rounded=0;" vertex="1" parent="1">
          <mxGeometry x="303.5" y="440" width="120" height="30" as="geometry" />
        </mxCell>
        <mxCell id="xJSVYITagOBkP6hm_T9q-27" value="" style="whiteSpace=wrap;html=1;aspect=fixed;" vertex="1" parent="1">
          <mxGeometry x="650" y="290" width="190" height="190" as="geometry" />
        </mxCell>
        <mxCell id="xJSVYITagOBkP6hm_T9q-28" value="Invoices" style="text;html=1;align=center;verticalAlign=middle;whiteSpace=wrap;rounded=0;" vertex="1" parent="1">
          <mxGeometry x="715" y="290" width="60" height="30" as="geometry" />
        </mxCell>
        <mxCell id="xJSVYITagOBkP6hm_T9q-29" value="invoicve_id (bigint/int)" style="text;html=1;align=center;verticalAlign=middle;whiteSpace=wrap;rounded=0;" vertex="1" parent="1">
          <mxGeometry x="656" y="320" width="175" height="30" as="geometry" />
        </mxCell>
        <mxCell id="xJSVYITagOBkP6hm_T9q-30" value="booking_id (bigint/int)" style="text;html=1;align=center;verticalAlign=middle;whiteSpace=wrap;rounded=0;" vertex="1" parent="1">
          <mxGeometry x="678.5" y="350" width="130" height="30" as="geometry" />
        </mxCell>
        <mxCell id="xJSVYITagOBkP6hm_T9q-31" value="total_amount(DECIMAL)" style="text;html=1;align=center;verticalAlign=middle;whiteSpace=wrap;rounded=0;" vertex="1" parent="1">
          <mxGeometry x="711" y="380" width="60" height="30" as="geometry" />
        </mxCell>
        <mxCell id="xJSVYITagOBkP6hm_T9q-32" value="is_paid(BOOLEAN)" style="text;html=1;align=center;verticalAlign=middle;whiteSpace=wrap;rounded=0;" vertex="1" parent="1">
          <mxGeometry x="711" y="410" width="60" height="30" as="geometry" />
        </mxCell>
      </root>
    </mxGraphModel>
  </diagram>
</mxfile>
